<?xml version="1.0" standalone="no"?>
<!DOCTYPE svg PUBLIC "-//W3C//DTD SVG 20010904//EN"
 "http://www.w3.org/TR/2001/REC-SVG-20010904/DTD/svg10.dtd">
<svg version="1.0" xmlns="http://www.w3.org/2000/svg"
 width="900.000000pt" height="900.000000pt" viewBox="0 0 900.000000 900.000000"
 preserveAspectRatio="xMidYMid meet">
<metadata>
Created by potrace 1.10, written by Peter Selinger 2001-2011
</metadata>
<g transform="translate(0.000000,900.000000) scale(0.100000,-0.100000)"
fill="#000000" stroke="none">
<path d="M1438 7790 c-172 -30 -335 -192 -374 -375 -19 -89 -19 -5761 0 -5850
41 -191 205 -349 389 -376 67 -9 4530 -13 4668 -4 101 7 252 30 334 52 93 24
189 55 200 65 5 4 17 8 27 8 9 0 34 9 55 19 21 11 65 32 98 47 282 130 568
380 759 662 42 62 76 114 76 117 0 2 13 26 28 52 32 55 122 262 122 280 0 7 6
27 14 45 13 31 29 87 56 203 16 70 40 305 40 395 0 146 -26 343 -67 495 -22
84 -74 237 -92 273 -5 9 -26 52 -47 95 -167 336 -432 623 -744 808 -243 144
-540 243 -789 264 -36 3 -68 11 -73 18 -4 6 -8 530 -8 1163 l0 1151 -25 69
c-14 38 -34 81 -45 96 -11 15 -20 31 -20 37 0 13 -130 131 -144 131 -7 0 -17
5 -23 11 -7 7 -36 21 -65 33 l-53 21 -2125 1 c-1169 1 -2146 -2 -2172 -6z
m4248 -265 c58 -17 107 -57 137 -112 21 -38 21 -39 23 -1173 1 -624 -2 -1142
-7 -1152 -7 -12 -30 -18 -96 -23 -49 -4 -106 -13 -128 -21 -22 -8 -52 -14 -67
-14 -15 0 -39 -5 -55 -11 -15 -6 -44 -15 -63 -19 -37 -9 -85 -25 -138 -47 -18
-8 -37 -11 -42 -8 -6 3 -10 42 -10 87 0 94 -16 130 -72 159 -34 18 -62 19
-364 19 -312 0 -328 -1 -360 -21 -18 -11 -42 -35 -54 -54 -20 -33 -21 -44 -18
-342 3 -307 3 -308 27 -342 13 -18 39 -40 57 -47 l34 -14 -73 -98 c-64 -85
-89 -122 -144 -217 -84 -147 -176 -395 -204 -550 -4 -27 -15 -86 -23 -131 -19
-106 -13 -471 9 -594 23 -124 54 -240 100 -370 24 -68 130 -276 180 -354 140
-219 344 -424 585 -588 22 -15 40 -32 40 -38 0 -16 -3402 -14 -3470 2 -74 17
-140 78 -163 150 -16 51 -17 240 -17 2888 0 3207 -8 2904 81 2984 30 27 64 47
91 53 29 7 719 11 2099 12 1787 1 2062 -1 2105 -14z m-712 -2601 c8 -20 8 -72
0 -101 -4 -13 -41 -46 -91 -80 -120 -83 -122 -83 -183 -81 l-55 3 -3 124 c-1
69 0 131 2 138 4 10 43 13 165 13 136 0 160 -2 165 -16z m1236 -129 c233 -33
401 -90 615 -209 203 -113 435 -335 571 -546 40 -63 47 -76 89 -160 72 -145
81 -170 135 -365 14 -50 38 -223 46 -335 11 -146 -34 -434 -91 -592 -9 -24
-20 -57 -25 -73 -14 -44 -127 -264 -155 -302 -14 -17 -25 -35 -25 -39 0 -11
-109 -144 -180 -218 -76 -80 -293 -256 -316 -256 -4 0 -15 -6 -23 -14 -48 -42
-277 -141 -411 -179 -110 -30 -157 -39 -272 -51 -140 -15 -409 -5 -508 19
-191 47 -197 49 -344 110 -95 39 -156 71 -224 116 -24 16 -45 29 -48 29 -13 0
-137 102 -218 180 -134 129 -206 220 -313 395 -72 119 -135 290 -187 510 -21
91 -31 361 -17 490 14 134 61 348 82 370 5 5 9 18 9 28 0 10 6 31 14 45 7 15
35 72 62 127 103 211 278 430 444 556 25 18 47 36 50 39 8 9 151 103 195 127
75 43 176 89 245 113 107 37 281 79 330 81 25 0 56 5 70 9 43 14 290 11 400
-5z"/>
<path d="M1982 6989 c-63 -41 -62 -31 -62 -675 0 -638 -1 -624 58 -669 27 -20
43 -20 1602 -20 1559 0 1575 0 1602 20 60 46 58 17 58 674 l0 602 -22 30 c-47
63 69 59 -1640 59 l-1563 0 -33 -21z m2996 -654 c1 -220 0 -410 -3 -422 l-5
-23 -1389 0 c-1257 0 -1389 1 -1395 16 -8 22 -8 819 1 827 3 4 632 6 1397 5
l1391 -3 3 -400z"/>
<path d="M1992 5190 c-18 -11 -41 -34 -52 -52 -19 -31 -20 -51 -20 -331 0
-323 3 -344 55 -385 27 -22 34 -22 382 -22 l355 0 33 33 c45 45 47 68 43 407
-4 399 30 370 -436 370 -309 0 -329 -1 -360 -20z m532 -266 c12 -30 7 -239 -6
-252 -17 -17 -309 -17 -326 0 -13 13 -18 249 -5 261 3 4 79 7 169 7 138 0 163
-2 168 -16z"/>
<path d="M3218 5189 c-70 -36 -73 -49 -76 -369 -3 -312 2 -351 57 -397 26 -22
29 -22 383 -23 l357 0 36 37 35 36 0 324 c0 357 1 352 -65 393 -31 19 -48 20
-361 20 -308 -1 -331 -2 -366 -21z m530 -378 c2 -82 -1 -128 -9 -137 -9 -11
-45 -14 -154 -14 -79 0 -150 3 -159 6 -13 5 -16 27 -16 133 0 70 3 131 7 135
4 3 79 5 167 4 l161 -3 3 -124z"/>
<path d="M1986 3960 c-63 -41 -65 -54 -66 -381 0 -326 3 -349 59 -388 28 -20
40 -21 380 -21 l350 0 35 35 c25 24 37 47 41 77 4 24 5 171 3 328 -4 401 32
370 -435 370 -318 0 -340 -1 -367 -20z m542 -380 c2 -109 0 -126 -15 -137 -21
-16 -285 -18 -314 -3 -17 10 -19 22 -19 134 0 67 3 126 7 130 4 3 81 5 172 4
l166 -3 3 -125z"/>
<path d="M3212 3959 c-64 -42 -67 -54 -70 -361 -4 -309 1 -343 53 -395 l33
-33 354 0 355 0 36 37 c21 20 38 43 38 52 1 9 0 156 -1 326 -2 340 -1 338 -63
375 -30 19 -52 20 -367 20 -323 0 -336 -1 -368 -21z m536 -378 c2 -82 -1 -128
-9 -137 -9 -11 -45 -14 -154 -14 -79 0 -150 3 -159 6 -13 5 -16 27 -16 133 0
70 3 131 7 135 4 3 79 5 167 4 l161 -3 3 -124z"/>
<path d="M1982 2729 c-59 -38 -62 -59 -62 -384 0 -326 3 -347 63 -384 33 -20
47 -21 372 -21 367 0 366 0 410 58 19 26 20 43 20 343 0 347 -1 352 -61 389
-30 19 -51 20 -370 20 -327 0 -340 -1 -372 -21z m546 -382 c2 -119 1 -128 -17
-135 -11 -4 -88 -5 -173 -2 l-153 5 -3 119 c-1 66 0 126 2 133 4 11 41 13 173
11 l168 -3 3 -128z"/>
<path d="M3197 2717 c-20 -18 -40 -50 -46 -72 -15 -54 -15 -546 0 -600 6 -22
26 -54 46 -72 l34 -33 346 0 c301 0 348 2 373 16 59 35 60 42 60 389 0 347 -1
354 -60 389 -25 14 -72 16 -373 16 l-346 0 -34 -33z m551 -367 c2 -97 0 -127
-11 -135 -9 -6 -72 -8 -168 -5 l-154 5 -3 119 c-1 66 0 126 2 133 4 11 40 13
168 11 l163 -3 3 -125z"/>
<path d="M5899 4287 c-34 -29 -47 -67 -52 -153 -2 -39 -7 -76 -11 -83 -4 -6
-26 -11 -49 -11 -46 0 -131 -27 -214 -67 -64 -32 -166 -132 -206 -204 -165
-297 -6 -655 335 -756 38 -11 114 -16 268 -19 234 -5 259 -10 333 -67 60 -46
82 -97 82 -193 0 -78 -2 -84 -39 -138 -29 -43 -52 -62 -99 -86 l-60 -30 -204
0 c-187 0 -207 2 -246 21 -84 42 -137 118 -137 196 0 70 -69 143 -136 143 -64
0 -134 -76 -134 -146 0 -49 30 -155 60 -214 35 -69 139 -170 212 -207 61 -30
172 -63 215 -63 23 0 33 -37 33 -123 0 -57 17 -94 59 -124 55 -41 135 -24 179
38 12 17 19 52 22 114 4 80 7 90 25 93 133 19 252 64 326 123 59 46 129 143
161 223 26 64 29 82 29 181 0 115 -10 159 -60 255 -31 59 -142 167 -209 203
-104 56 -166 67 -387 67 -229 0 -267 8 -341 73 -56 49 -84 112 -84 189 0 99
53 179 150 229 43 21 56 23 262 23 l217 0 51 -34 c65 -45 94 -90 108 -169 23
-128 102 -183 194 -135 57 30 67 50 68 141 0 83 -5 102 -54 202 -64 133 -229
242 -391 260 l-60 6 -5 96 c-5 97 -11 113 -55 151 -31 27 -123 24 -156 -5z"/>
</g>
</svg>
