<?xml version="1.0" standalone="no"?>
<!DOCTYPE svg PUBLIC "-//W3C//DTD SVG 20010904//EN"
 "http://www.w3.org/TR/2001/REC-SVG-20010904/DTD/svg10.dtd">
<svg version="1.0" xmlns="http://www.w3.org/2000/svg"
 width="381.000000pt" height="441.000000pt" viewBox="0 0 381.000000 441.000000"
 preserveAspectRatio="xMidYMid meet">
<metadata>
Created by potrace 1.10, written by Peter Selinger 2001-2011
</metadata>
<g transform="translate(0.000000,441.000000) scale(0.100000,-0.100000)"
fill="#000000" stroke="none">
<path d="M385 4190 c-57 -6 -122 -44 -153 -88 -54 -75 -52 10 -52 -1675 0
-1401 2 -1563 16 -1607 19 -57 63 -110 119 -142 l40 -23 570 -3 c314 -1 580 0
592 3 50 12 60 90 14 114 -13 8 -196 11 -558 11 -325 0 -552 4 -574 10 -19 6
-46 22 -60 36 l-24 26 0 1572 c0 1558 0 1572 20 1592 54 57 -23 54 1290 54
1321 0 1240 4 1284 -59 21 -29 21 -35 21 -865 0 -823 0 -836 20 -856 28 -28
76 -26 95 4 14 21 15 120 13 883 -3 821 -4 860 -22 888 -30 49 -68 85 -111
108 l-40 22 -1225 0 c-674 0 -1247 -2 -1275 -5z"/>
<path d="M750 3683 c-39 -14 -40 -25 -40 -412 0 -207 4 -381 8 -387 22 -33 47
-34 902 -34 920 0 899 -1 914 52 3 13 6 183 6 379 0 336 -1 358 -19 380 l-19
24 -869 2 c-477 1 -875 -1 -883 -4z m1645 -145 c3 -13 4 -140 3 -283 l-3 -260
-775 0 -775 0 -3 269 c-2 190 1 273 9 282 10 12 140 14 775 14 l764 0 5 -22z"/>
<path d="M732 2384 c-28 -19 -29 -67 -2 -94 19 -19 33 -20 200 -20 l180 0 20
32 c17 28 17 34 5 58 -8 15 -22 30 -30 34 -9 3 -92 6 -184 6 -135 0 -171 -3
-189 -16z"/>
<path d="M1428 2387 c-30 -23 -33 -65 -7 -93 22 -24 25 -24 200 -24 170 0 179
1 199 22 11 12 20 31 20 43 0 12 -9 31 -20 43 -20 21 -28 22 -198 22 -128 -1
-182 -4 -194 -13z"/>
<path d="M2120 2382 c-14 -11 -22 -29 -22 -47 0 -18 8 -36 22 -47 20 -16 43
-18 200 -18 l179 0 20 26 c27 34 26 50 -4 79 -24 25 -27 25 -198 25 -154 0
-177 -2 -197 -18z"/>
<path d="M2680 2031 c-278 -30 -500 -136 -571 -273 -17 -34 -19 -60 -19 -271
0 -261 5 -243 -75 -282 -58 -28 -140 -91 -167 -128 -56 -75 -58 -87 -58 -344
0 -283 5 -307 88 -389 51 -52 213 -144 252 -144 9 0 20 -4 25 -9 14 -14 134
-36 325 -62 122 -16 416 1 530 31 281 73 432 173 469 310 13 49 11 482 -3 531
-7 24 -3 30 41 60 26 18 65 51 85 72 60 65 68 105 68 351 0 252 -7 278 -93
360 -49 46 -194 126 -229 126 -8 0 -18 4 -24 9 -5 5 -36 15 -69 21 -33 7 -78
16 -100 21 -57 12 -386 19 -475 10z m424 -137 c208 -39 313 -81 384 -151 35
-35 42 -49 42 -81 0 -83 -132 -163 -360 -218 -61 -16 -115 -19 -295 -19 -242
1 -297 9 -450 67 -340 131 -241 311 220 402 99 20 358 20 459 0z m-809 -490
c42 -22 81 -36 200 -74 90 -29 341 -53 465 -45 193 12 411 65 502 122 64 39
68 35 68 -64 0 -82 -2 -90 -28 -118 -24 -27 -123 -95 -138 -95 -3 0 -20 -6
-37 -14 -75 -33 -320 -74 -447 -75 -76 -1 -313 32 -385 52 -70 20 -163 63
-203 93 -57 44 -72 79 -72 167 0 89 2 90 75 51z m-77 -326 c68 -48 100 -63
188 -94 142 -49 188 -55 425 -61 225 -5 273 -1 424 32 39 8 76 13 83 10 18 -7
15 -61 -5 -93 -36 -55 -129 -112 -238 -146 -27 -8 -66 -20 -85 -26 -62 -20
-251 -40 -375 -39 -125 0 -301 19 -370 39 -133 38 -235 87 -290 137 -32 29
-39 43 -43 85 -5 49 -4 50 45 96 58 54 126 92 166 92 16 0 49 -14 75 -32z
m1130 -494 l2 -99 -32 -36 c-67 -73 -182 -124 -378 -167 -107 -23 -493 -23
-600 0 -148 33 -221 58 -304 107 -85 51 -110 93 -115 198 -4 103 3 107 96 63
114 -53 170 -72 268 -89 33 -6 85 -16 115 -22 67 -13 489 -7 540 9 19 5 69 18
110 27 84 19 212 68 250 96 14 10 30 17 35 15 6 -1 11 -47 13 -102z"/>
<path d="M726 1894 c-17 -16 -21 -61 -8 -81 15 -24 67 -33 201 -33 174 0 198
5 217 41 13 26 13 32 -1 59 l-16 30 -189 0 c-158 0 -191 -3 -204 -16z"/>
<path d="M1420 1890 c-25 -25 -25 -51 -1 -81 19 -24 22 -24 199 -24 163 0 182
2 201 19 25 23 27 53 5 84 -15 21 -20 22 -200 22 -171 0 -185 -1 -204 -20z"/>
<path d="M730 1410 c-32 -32 -26 -76 13 -100 28 -18 50 -20 187 -20 164 0 186
5 210 50 12 23 -9 74 -35 84 -9 3 -93 6 -186 6 -156 0 -171 -2 -189 -20z"/>
<path d="M1425 1405 c-38 -37 -33 -65 15 -98 34 -23 315 -25 359 -2 47 24 55
69 18 103 -22 21 -32 22 -196 22 -169 0 -172 0 -196 -25z"/>
</g>
</svg>
